<?xml version="1.0" encoding="UTF-8" standalone="no"?>
<!DOCTYPE svg PUBLIC "-//W3C//DTD SVG 1.1//EN"
 "http://www.w3.org/Graphics/SVG/1.1/DTD/svg11.dtd">
<!-- Generated by graphviz version 2.43.0 (0)
 -->
<!-- Title: Branch_Flow Pages: 1 -->
<svg width="404pt" height="66pt"
 viewBox="0.00 0.00 404.00 66.00" xmlns="http://www.w3.org/2000/svg" xmlns:xlink="http://www.w3.org/1999/xlink">
<g id="graph0" class="graph" transform="scale(1 1) rotate(0) translate(4 62)">
<title>Branch_Flow</title>
<polygon fill="white" stroke="transparent" points="-4,4 -4,-62 400,-62 400,4 -4,4"/>
<!-- B0 -->
<g id="node1" class="node">
<title>B0</title>
<polygon fill="lavender" stroke="black" points="108,-58 0,-58 0,0 108,0 108,-58"/>
<text text-anchor="middle" x="54" y="-32.2" font-family="Arial" font-size="11.00">FETCH</text>
<text text-anchor="middle" x="54" y="-20.2" font-family="Arial" font-size="11.00">Cycle 1</text>
</g>
<!-- B1 -->
<g id="node2" class="node">
<title>B1</title>
<polygon fill="lavender" stroke="black" points="252,-58 144,-58 144,0 252,0 252,-58"/>
<text text-anchor="middle" x="198" y="-32.2" font-family="Arial" font-size="11.00">DECODE</text>
<text text-anchor="middle" x="198" y="-20.2" font-family="Arial" font-size="11.00">Cycle 2</text>
</g>
<!-- B0&#45;&gt;B1 -->
<g id="edge1" class="edge">
<title>B0&#45;&gt;B1</title>
<path fill="none" stroke="black" d="M108.03,-29C108.03,-29 133.67,-29 133.67,-29"/>
<polygon fill="black" stroke="black" points="133.67,-32.5 143.67,-29 133.67,-25.5 133.67,-32.5"/>
</g>
<!-- B2 -->
<g id="node3" class="node">
<title>B2</title>
<polygon fill="lavender" stroke="black" points="396,-58 288,-58 288,0 396,0 396,-58"/>
<text text-anchor="middle" x="342" y="-32.2" font-family="Arial" font-size="11.00">BRANCH</text>
<text text-anchor="middle" x="342" y="-20.2" font-family="Arial" font-size="11.00">Cycle 3</text>
</g>
<!-- B1&#45;&gt;B2 -->
<g id="edge2" class="edge">
<title>B1&#45;&gt;B2</title>
<path fill="none" stroke="black" d="M252.03,-29C252.03,-29 277.67,-29 277.67,-29"/>
<polygon fill="black" stroke="black" points="277.67,-32.5 287.67,-29 277.67,-25.5 277.67,-32.5"/>
</g>
</g>
</svg>
