<?xml version="1.0" encoding="UTF-8" standalone="no"?>
<!DOCTYPE svg PUBLIC "-//W3C//DTD SVG 1.1//EN"
 "http://www.w3.org/Graphics/SVG/1.1/DTD/svg11.dtd">
<!-- Generated by graphviz version 2.43.0 (0)
 -->
<!-- Title: FSM_State_Diagram Pages: 1 -->
<svg width="702pt" height="831pt"
 viewBox="0.00 0.00 702.00 831.36" xmlns="http://www.w3.org/2000/svg" xmlns:xlink="http://www.w3.org/1999/xlink">
<g id="graph0" class="graph" transform="scale(1 1) rotate(0) translate(4 827.36)">
<title>FSM_State_Diagram</title>
<polygon fill="white" stroke="transparent" points="-4,4 -4,-827.36 698,-827.36 698,4 -4,4"/>
<!-- FETCH -->
<g id="node1" class="node">
<title>FETCH</title>
<ellipse fill="lightblue" stroke="black" cx="483" cy="-780.36" rx="43" ry="43"/>
<text text-anchor="middle" x="483" y="-783.76" font-family="Arial" font-size="12.00">State 0</text>
<text text-anchor="middle" x="483" y="-770.76" font-family="Arial" font-size="12.00">FETCH</text>
</g>
<!-- DECODE -->
<g id="node2" class="node">
<title>DECODE</title>
<ellipse fill="lightblue" stroke="black" cx="284" cy="-597.36" rx="43" ry="43"/>
<text text-anchor="middle" x="284" y="-600.76" font-family="Arial" font-size="12.00">State 1</text>
<text text-anchor="middle" x="284" y="-587.76" font-family="Arial" font-size="12.00">DECODE</text>
</g>
<!-- FETCH&#45;&gt;DECODE -->
<g id="edge1" class="edge">
<title>FETCH&#45;&gt;DECODE</title>
<path fill="none" stroke="black" d="M480,-737.19C480,-687.01 480,-611 480,-611 480,-611 333.09,-611 333.09,-611"/>
<polygon fill="black" stroke="black" points="333.09,-608.2 325.09,-611 333.09,-613.8 333.09,-608.2"/>
<text text-anchor="middle" x="362.5" y="-686.36" font-family="Arial" font-size="10.00">All instructions</text>
</g>
<!-- MEMADR -->
<g id="node3" class="node">
<title>MEMADR</title>
<ellipse fill="lightblue" stroke="black" cx="319" cy="-403.36" rx="43" ry="43"/>
<text text-anchor="middle" x="319" y="-406.76" font-family="Arial" font-size="12.00">State 2</text>
<text text-anchor="middle" x="319" y="-393.76" font-family="Arial" font-size="12.00">MEMADR</text>
</g>
<!-- DECODE&#45;&gt;MEMADR -->
<g id="edge3" class="edge">
<title>DECODE&#45;&gt;MEMADR</title>
<path fill="none" stroke="black" d="M301.5,-557.63C301.5,-557.63 301.5,-450.7 301.5,-450.7"/>
<polygon fill="black" stroke="black" points="304.3,-450.7 301.5,-442.7 298.7,-450.7 304.3,-450.7"/>
<text text-anchor="middle" x="279.5" y="-503.36" font-family="Arial" font-size="10.00">Load/Store</text>
<text text-anchor="middle" x="279.5" y="-492.36" font-family="Arial" font-size="10.00">(0000011/0100011)</text>
</g>
<!-- EXECUTE -->
<g id="node7" class="node">
<title>EXECUTE</title>
<ellipse fill="lightblue" stroke="black" cx="137" cy="-403.36" rx="43" ry="43"/>
<text text-anchor="middle" x="137" y="-406.76" font-family="Arial" font-size="12.00">State 6</text>
<text text-anchor="middle" x="137" y="-393.76" font-family="Arial" font-size="12.00">EXECUTE</text>
</g>
<!-- DECODE&#45;&gt;EXECUTE -->
<g id="edge2" class="edge">
<title>DECODE&#45;&gt;EXECUTE</title>
<path fill="none" stroke="black" d="M258.5,-562.61C258.5,-506.71 258.5,-403 258.5,-403 258.5,-403 188.18,-403 188.18,-403"/>
<polygon fill="black" stroke="black" points="188.18,-400.2 180.18,-403 188.18,-405.8 188.18,-400.2"/>
<text text-anchor="middle" x="139.5" y="-503.36" font-family="Arial" font-size="10.00">R&#45;type</text>
<text text-anchor="middle" x="139.5" y="-492.36" font-family="Arial" font-size="10.00">(0110011)</text>
</g>
<!-- BRANCH -->
<g id="node9" class="node">
<title>BRANCH</title>
<ellipse fill="lightblue" stroke="black" cx="477" cy="-403.36" rx="43" ry="43"/>
<text text-anchor="middle" x="477" y="-406.76" font-family="Arial" font-size="12.00">State 8</text>
<text text-anchor="middle" x="477" y="-393.76" font-family="Arial" font-size="12.00">BRANCH</text>
</g>
<!-- DECODE&#45;&gt;BRANCH -->
<g id="edge4" class="edge">
<title>DECODE&#45;&gt;BRANCH</title>
<path fill="none" stroke="black" d="M324.82,-583C376.81,-583 460,-583 460,-583 460,-583 460,-451.23 460,-451.23"/>
<polygon fill="black" stroke="black" points="462.8,-451.23 460,-443.23 457.2,-451.23 462.8,-451.23"/>
<text text-anchor="middle" x="419.5" y="-503.36" font-family="Arial" font-size="10.00">Branch</text>
<text text-anchor="middle" x="419.5" y="-492.36" font-family="Arial" font-size="10.00">(1100011)</text>
</g>
<!-- MEMREAD -->
<g id="node4" class="node">
<title>MEMREAD</title>
<ellipse fill="lightblue" stroke="black" cx="361" cy="-218.18" rx="43.01" ry="43.01"/>
<text text-anchor="middle" x="361" y="-221.58" font-family="Arial" font-size="12.00">State 3</text>
<text text-anchor="middle" x="361" y="-208.58" font-family="Arial" font-size="12.00">MEMREAD</text>
</g>
<!-- MEMADR&#45;&gt;MEMREAD -->
<g id="edge5" class="edge">
<title>MEMADR&#45;&gt;MEMREAD</title>
<path fill="none" stroke="black" d="M347.33,-370.68C347.33,-370.68 347.33,-267.28 347.33,-267.28"/>
<polygon fill="black" stroke="black" points="350.13,-267.28 347.33,-259.28 344.53,-267.28 350.13,-267.28"/>
<text text-anchor="middle" x="351" y="-309.36" font-family="Arial" font-size="10.00">Load</text>
</g>
<!-- MEMWRITE -->
<g id="node6" class="node">
<title>MEMWRITE</title>
<ellipse fill="lightblue" stroke="black" cx="592" cy="-218.18" rx="45.36" ry="45.36"/>
<text text-anchor="middle" x="592" y="-221.58" font-family="Arial" font-size="12.00">State 5</text>
<text text-anchor="middle" x="592" y="-208.58" font-family="Arial" font-size="12.00">MEMWRITE</text>
</g>
<!-- MEMADR&#45;&gt;MEMWRITE -->
<g id="edge6" class="edge">
<title>MEMADR&#45;&gt;MEMWRITE</title>
<path fill="none" stroke="black" d="M332.66,-362.58C332.66,-337.84 332.66,-311 332.66,-311 332.66,-311 576.94,-311 576.94,-311 576.94,-311 576.94,-268.79 576.94,-268.79"/>
<polygon fill="black" stroke="black" points="579.74,-268.79 576.94,-260.79 574.14,-268.79 579.74,-268.79"/>
<text text-anchor="middle" x="513" y="-309.36" font-family="Arial" font-size="10.00">Store</text>
</g>
<!-- MEMWB -->
<g id="node5" class="node">
<title>MEMWB</title>
<ellipse fill="lightblue" stroke="black" cx="651" cy="-43" rx="43" ry="43"/>
<text text-anchor="middle" x="651" y="-46.4" font-family="Arial" font-size="12.00">State 4</text>
<text text-anchor="middle" x="651" y="-33.4" font-family="Arial" font-size="12.00">MEMWB</text>
</g>
<!-- MEMREAD&#45;&gt;MEMWB -->
<g id="edge7" class="edge">
<title>MEMREAD&#45;&gt;MEMWB</title>
<path fill="none" stroke="black" d="M361,-174.88C361,-123 361,-43 361,-43 361,-43 599.9,-43 599.9,-43"/>
<polygon fill="black" stroke="black" points="599.9,-45.8 607.9,-43 599.9,-40.2 599.9,-45.8"/>
</g>
<!-- MEMWB&#45;&gt;FETCH -->
<g id="edge8" class="edge">
<title>MEMWB&#45;&gt;FETCH</title>
<path fill="none" stroke="black" d="M665.59,-83.64C665.59,-240 665.59,-794 665.59,-794 665.59,-794 531.98,-794 531.98,-794"/>
<polygon fill="black" stroke="black" points="531.98,-791.2 523.98,-794 531.98,-796.8 531.98,-791.2"/>
</g>
<!-- MEMWRITE&#45;&gt;FETCH -->
<g id="edge9" class="edge">
<title>MEMWRITE&#45;&gt;FETCH</title>
<path fill="none" stroke="black" d="M607.06,-261.17C607.06,-390.31 607.06,-766 607.06,-766 607.06,-766 531.62,-766 531.62,-766"/>
<polygon fill="black" stroke="black" points="531.62,-763.2 523.62,-766 531.62,-768.8 531.62,-763.2"/>
</g>
<!-- ALUWRITEBACK -->
<g id="node8" class="node">
<title>ALUWRITEBACK</title>
<ellipse fill="lightblue" stroke="black" cx="43" cy="-218.18" rx="43" ry="43"/>
<text text-anchor="middle" x="43" y="-221.58" font-family="Arial" font-size="12.00">State 7</text>
<text text-anchor="middle" x="43" y="-208.58" font-family="Arial" font-size="12.00">ALUWB</text>
</g>
<!-- EXECUTE&#45;&gt;ALUWRITEBACK -->
<g id="edge10" class="edge">
<title>EXECUTE&#45;&gt;ALUWRITEBACK</title>
<path fill="none" stroke="black" d="M137,-359.9C137,-305.12 137,-218 137,-218 137,-218 94.15,-218 94.15,-218"/>
<polygon fill="black" stroke="black" points="94.15,-215.2 86.15,-218 94.15,-220.8 94.15,-215.2"/>
</g>
<!-- ALUWRITEBACK&#45;&gt;FETCH -->
<g id="edge11" class="edge">
<title>ALUWRITEBACK&#45;&gt;FETCH</title>
<path fill="none" stroke="black" d="M43,-261.33C43,-392.89 43,-780 43,-780 43,-780 431.61,-780 431.61,-780"/>
<polygon fill="black" stroke="black" points="431.61,-782.8 439.61,-780 431.61,-777.2 431.61,-782.8"/>
</g>
<!-- BRANCH&#45;&gt;FETCH -->
<g id="edge12" class="edge">
<title>BRANCH&#45;&gt;FETCH</title>
<path fill="none" stroke="black" d="M500,-439.85C500,-439.85 500,-732.75 500,-732.75"/>
<polygon fill="black" stroke="black" points="497.2,-732.75 500,-740.75 502.8,-732.75 497.2,-732.75"/>
</g>
</g>
</svg>
