<?xml version="1.0" encoding="UTF-8" standalone="no"?>
<!DOCTYPE svg PUBLIC "-//W3C//DTD SVG 1.1//EN"
 "http://www.w3.org/Graphics/SVG/1.1/DTD/svg11.dtd">
<!-- Generated by graphviz version 2.43.0 (0)
 -->
<!-- Title: Load_Flow Pages: 1 -->
<svg width="692pt" height="66pt"
 viewBox="0.00 0.00 692.00 66.00" xmlns="http://www.w3.org/2000/svg" xmlns:xlink="http://www.w3.org/1999/xlink">
<g id="graph0" class="graph" transform="scale(1 1) rotate(0) translate(4 62)">
<title>Load_Flow</title>
<polygon fill="white" stroke="transparent" points="-4,4 -4,-62 688,-62 688,4 -4,4"/>
<!-- L0 -->
<g id="node1" class="node">
<title>L0</title>
<polygon fill="lightyellow" stroke="black" points="108,-58 0,-58 0,0 108,0 108,-58"/>
<text text-anchor="middle" x="54" y="-32.2" font-family="Arial" font-size="11.00">FETCH</text>
<text text-anchor="middle" x="54" y="-20.2" font-family="Arial" font-size="11.00">Cycle 1</text>
</g>
<!-- L1 -->
<g id="node2" class="node">
<title>L1</title>
<polygon fill="lightyellow" stroke="black" points="252,-58 144,-58 144,0 252,0 252,-58"/>
<text text-anchor="middle" x="198" y="-32.2" font-family="Arial" font-size="11.00">DECODE</text>
<text text-anchor="middle" x="198" y="-20.2" font-family="Arial" font-size="11.00">Cycle 2</text>
</g>
<!-- L0&#45;&gt;L1 -->
<g id="edge1" class="edge">
<title>L0&#45;&gt;L1</title>
<path fill="none" stroke="black" d="M108.03,-29C108.03,-29 133.67,-29 133.67,-29"/>
<polygon fill="black" stroke="black" points="133.67,-32.5 143.67,-29 133.67,-25.5 133.67,-32.5"/>
</g>
<!-- L2 -->
<g id="node3" class="node">
<title>L2</title>
<polygon fill="lightyellow" stroke="black" points="396,-58 288,-58 288,0 396,0 396,-58"/>
<text text-anchor="middle" x="342" y="-32.2" font-family="Arial" font-size="11.00">MEMADR</text>
<text text-anchor="middle" x="342" y="-20.2" font-family="Arial" font-size="11.00">Cycle 3</text>
</g>
<!-- L1&#45;&gt;L2 -->
<g id="edge2" class="edge">
<title>L1&#45;&gt;L2</title>
<path fill="none" stroke="black" d="M252.03,-29C252.03,-29 277.67,-29 277.67,-29"/>
<polygon fill="black" stroke="black" points="277.67,-32.5 287.67,-29 277.67,-25.5 277.67,-32.5"/>
</g>
<!-- L3 -->
<g id="node4" class="node">
<title>L3</title>
<polygon fill="lightyellow" stroke="black" points="540,-58 432,-58 432,0 540,0 540,-58"/>
<text text-anchor="middle" x="486" y="-32.2" font-family="Arial" font-size="11.00">MEMREAD</text>
<text text-anchor="middle" x="486" y="-20.2" font-family="Arial" font-size="11.00">Cycle 4</text>
</g>
<!-- L2&#45;&gt;L3 -->
<g id="edge3" class="edge">
<title>L2&#45;&gt;L3</title>
<path fill="none" stroke="black" d="M396.03,-29C396.03,-29 421.67,-29 421.67,-29"/>
<polygon fill="black" stroke="black" points="421.67,-32.5 431.67,-29 421.67,-25.5 421.67,-32.5"/>
</g>
<!-- L4 -->
<g id="node5" class="node">
<title>L4</title>
<polygon fill="lightyellow" stroke="black" points="684,-58 576,-58 576,0 684,0 684,-58"/>
<text text-anchor="middle" x="630" y="-32.2" font-family="Arial" font-size="11.00">MEMWB</text>
<text text-anchor="middle" x="630" y="-20.2" font-family="Arial" font-size="11.00">Cycle 5</text>
</g>
<!-- L3&#45;&gt;L4 -->
<g id="edge4" class="edge">
<title>L3&#45;&gt;L4</title>
<path fill="none" stroke="black" d="M540.03,-29C540.03,-29 565.67,-29 565.67,-29"/>
<polygon fill="black" stroke="black" points="565.67,-32.5 575.67,-29 565.67,-25.5 565.67,-32.5"/>
</g>
</g>
</svg>
