<?xml version="1.0" encoding="UTF-8" standalone="no"?>
<!DOCTYPE svg PUBLIC "-//W3C//DTD SVG 1.1//EN"
 "http://www.w3.org/Graphics/SVG/1.1/DTD/svg11.dtd">
<!-- Generated by graphviz version 2.43.0 (0)
 -->
<!-- Title: Comparison Pages: 1 -->
<svg width="552pt" height="348pt"
 viewBox="0.00 0.00 552.00 348.00" xmlns="http://www.w3.org/2000/svg" xmlns:xlink="http://www.w3.org/1999/xlink">
<g id="graph0" class="graph" transform="scale(1 1) rotate(0) translate(4 344)">
<title>Comparison</title>
<polygon fill="white" stroke="transparent" points="-4,4 -4,-344 548,-344 548,4 -4,4"/>
<!-- table -->
<g id="node1" class="node">
<title>table</title>
<polygon fill="lightgray" stroke="transparent" points="9,-305 9,-335 137,-335 137,-305 9,-305"/>
<polygon fill="none" stroke="black" points="9,-305 9,-335 137,-335 137,-305 9,-305"/>
<text text-anchor="start" x="56.5" y="-318.2" font-family="Arial" font-weight="bold" font-size="11.00">Metric</text>
<polygon fill="lightblue" stroke="transparent" points="137,-305 137,-335 357,-335 357,-305 137,-305"/>
<polygon fill="none" stroke="black" points="137,-305 137,-335 357,-335 357,-305 137,-305"/>
<text text-anchor="start" x="213.5" y="-318.2" font-family="Arial" font-weight="bold" font-size="11.00">Single&#45;Cycle</text>
<polygon fill="lightgreen" stroke="transparent" points="357,-305 357,-335 535,-335 535,-305 357,-305"/>
<polygon fill="none" stroke="black" points="357,-305 357,-335 535,-335 535,-305 357,-305"/>
<text text-anchor="start" x="416.5" y="-318.2" font-family="Arial" font-weight="bold" font-size="11.00">Multi&#45;Cycle</text>
<polygon fill="none" stroke="black" points="9,-275 9,-305 137,-305 137,-275 9,-275"/>
<text text-anchor="start" x="63.5" y="-288.2" font-family="Arial" font-weight="bold" font-size="11.00">CPI</text>
<polygon fill="none" stroke="black" points="137,-275 137,-305 357,-305 357,-275 137,-275"/>
<text text-anchor="start" x="243.5" y="-287.2" font-family="Arial" font-size="11.00">1</text>
<polygon fill="none" stroke="black" points="357,-275 357,-305 535,-305 535,-275 357,-275"/>
<text text-anchor="start" x="411.5" y="-287.2" font-family="Arial" font-size="11.00">3&#45;5 (avg ~4.2)</text>
<polygon fill="none" stroke="black" points="9,-245 9,-275 137,-275 137,-245 9,-245"/>
<text text-anchor="start" x="39" y="-258.2" font-family="Arial" font-weight="bold" font-size="11.00">Clock Period</text>
<polygon fill="none" stroke="black" points="137,-245 137,-275 357,-275 357,-245 137,-245"/>
<text text-anchor="start" x="205.5" y="-257.2" font-family="Arial" font-size="11.00">Sum of all stages</text>
<polygon fill="none" stroke="black" points="357,-245 357,-275 535,-275 535,-245 357,-245"/>
<text text-anchor="start" x="396.5" y="-257.2" font-family="Arial" font-size="11.00">Longest single stage</text>
<polygon fill="none" stroke="black" points="9,-215 9,-245 137,-245 137,-215 9,-215"/>
<text text-anchor="start" x="40.5" y="-228.2" font-family="Arial" font-weight="bold" font-size="11.00">Critical Path</text>
<polygon fill="none" stroke="black" points="137,-215 137,-245 357,-245 357,-215 137,-215"/>
<text text-anchor="start" x="146" y="-227.2" font-family="Arial" font-size="11.00">PC → Mem → RF → ALU → Mem → RF</text>
<polygon fill="none" stroke="black" points="357,-215 357,-245 535,-245 535,-215 357,-215"/>
<text text-anchor="start" x="366" y="-227.2" font-family="Arial" font-size="11.00">Memory access or ALU operation</text>
<polygon fill="none" stroke="black" points="9,-185 9,-215 137,-215 137,-185 9,-185"/>
<text text-anchor="start" x="18" y="-198.2" font-family="Arial" font-weight="bold" font-size="11.00">Hardware Resources</text>
<polygon fill="none" stroke="black" points="137,-185 137,-215 357,-215 357,-185 137,-185"/>
<text text-anchor="start" x="194" y="-197.2" font-family="Arial" font-size="11.00">2 Memories, 3 Adders</text>
<polygon fill="none" stroke="black" points="357,-185 357,-215 535,-215 535,-185 357,-185"/>
<text text-anchor="start" x="382.5" y="-197.2" font-family="Arial" font-size="11.00">1 Memory, 1 ALU (shared)</text>
<polygon fill="none" stroke="black" points="9,-155 9,-185 137,-185 137,-155 9,-155"/>
<text text-anchor="start" x="27.5" y="-168.2" font-family="Arial" font-weight="bold" font-size="11.00">Instruction Types</text>
<polygon fill="none" stroke="black" points="137,-155 137,-185 535,-185 535,-155 137,-155"/>
<text text-anchor="start" x="268" y="-167.2" font-family="Arial" font-size="11.00">R&#45;type, Load, Store, Branch</text>
<polygon fill="none" stroke="black" points="9,-125 9,-155 137,-155 137,-125 9,-125"/>
<text text-anchor="start" x="36.5" y="-138.2" font-family="Arial" font-weight="bold" font-size="11.00">R&#45;type Cycles</text>
<polygon fill="none" stroke="black" points="137,-125 137,-155 357,-155 357,-125 137,-125"/>
<text text-anchor="start" x="243.5" y="-137.2" font-family="Arial" font-size="11.00">1</text>
<polygon fill="none" stroke="black" points="357,-125 357,-155 535,-155 535,-125 357,-125"/>
<text text-anchor="start" x="442.5" y="-137.2" font-family="Arial" font-size="11.00">4</text>
<polygon fill="none" stroke="black" points="9,-95 9,-125 137,-125 137,-95 9,-95"/>
<text text-anchor="start" x="40.5" y="-108.2" font-family="Arial" font-weight="bold" font-size="11.00">Load Cycles</text>
<polygon fill="none" stroke="black" points="137,-95 137,-125 357,-125 357,-95 137,-95"/>
<text text-anchor="start" x="243.5" y="-107.2" font-family="Arial" font-size="11.00">1</text>
<polygon fill="none" stroke="black" points="357,-95 357,-125 535,-125 535,-95 357,-95"/>
<text text-anchor="start" x="442.5" y="-107.2" font-family="Arial" font-size="11.00">5</text>
<polygon fill="none" stroke="black" points="9,-65 9,-95 137,-95 137,-65 9,-65"/>
<text text-anchor="start" x="39.5" y="-78.2" font-family="Arial" font-weight="bold" font-size="11.00">Store Cycles</text>
<polygon fill="none" stroke="black" points="137,-65 137,-95 357,-95 357,-65 137,-65"/>
<text text-anchor="start" x="243.5" y="-77.2" font-family="Arial" font-size="11.00">1</text>
<polygon fill="none" stroke="black" points="357,-65 357,-95 535,-95 535,-65 357,-65"/>
<text text-anchor="start" x="442.5" y="-77.2" font-family="Arial" font-size="11.00">4</text>
<polygon fill="none" stroke="black" points="9,-35 9,-65 137,-65 137,-35 9,-35"/>
<text text-anchor="start" x="34.5" y="-48.2" font-family="Arial" font-weight="bold" font-size="11.00">Branch Cycles</text>
<polygon fill="none" stroke="black" points="137,-35 137,-65 357,-65 357,-35 137,-35"/>
<text text-anchor="start" x="243.5" y="-47.2" font-family="Arial" font-size="11.00">1</text>
<polygon fill="none" stroke="black" points="357,-35 357,-65 535,-65 535,-35 357,-35"/>
<text text-anchor="start" x="442.5" y="-47.2" font-family="Arial" font-size="11.00">3</text>
<polygon fill="none" stroke="black" points="9,-5 9,-35 137,-35 137,-5 9,-5"/>
<text text-anchor="start" x="23.5" y="-18.2" font-family="Arial" font-weight="bold" font-size="11.00">Expected Speedup</text>
<polygon fill="none" stroke="black" points="137,-5 137,-35 357,-35 357,-5 137,-5"/>
<text text-anchor="start" x="216" y="-17.2" font-family="Arial" font-size="11.00">1x (baseline)</text>
<polygon fill="none" stroke="black" points="357,-5 357,-35 535,-35 535,-5 357,-5"/>
<text text-anchor="start" x="369.5" y="-17.2" font-family="Arial" font-size="11.00">1.5&#45;2.5x (depends on workload)</text>
<polygon fill="none" stroke="black" points="8,-4 8,-336 536,-336 536,-4 8,-4"/>
</g>
</g>
</svg>
